<svg xmlns="http://www.w3.org/2000/svg" width="1200" height="700" viewBox="0 0 1200 700">
<defs><marker id="arrow" markerWidth="10" markerHeight="10" refX="8" refY="3" orient="auto"><path d="M0,0 L0,6 L9,3 z" fill="#0f5c4d"/></marker><filter id="shadow"><feDropShadow dx="0" dy="8" stdDeviation="10" flood-opacity=".10"/></filter></defs>
<rect width="100%" height="100%" fill="#f7f3ea"/>
<text x="60" y="70" font-family="Arial Unicode MS, PingFang SC, sans-serif" font-size="34" font-weight="700" fill="#10231f">月信 · 女性健康 App · 系统架构</text>
<text x="60" y="104" font-family="Arial Unicode MS, PingFang SC, sans-serif" font-size="15" fill="#60716b">已实现：React 本地 MVP；Local-only，无后端、无账号、默认不上云</text><rect x="60" y="132" width="1080" height="46" rx="18" fill="#10231f"/><text x="82" y="161" font-family="Arial Unicode MS, PingFang SC, sans-serif" font-size="15" fill="white">图例：深色 = 系统边界 ｜ 绿色 = AI/核心能力 ｜ 浅色 = 数据与治理 ｜ 箭头 = 主要依赖</text><rect x="60" y="215" width="245" height="340" rx="24" fill="#10231f" filter="url(#shadow)"/><text x="84" y="257" font-family="Arial Unicode MS, PingFang SC, sans-serif" font-size="18" font-weight="700" fill="#dff23d">交互层</text><rect x="78" y="293" width="209" height="56" rx="14" fill="rgba(255,255,255,.09)" stroke="#ffffff33"/><text x="92" y="327" font-family="Arial Unicode MS, PingFang SC, sans-serif" font-size="14" fill="white">首页 / 快速记录</text><rect x="78" y="371" width="209" height="56" rx="14" fill="rgba(255,255,255,.09)" stroke="#ffffff33"/><text x="92" y="405" font-family="Arial Unicode MS, PingFang SC, sans-serif" font-size="14" fill="white">趋势洞察</text><rect x="78" y="449" width="209" height="56" rx="14" fill="rgba(255,255,255,.09)" stroke="#ffffff33"/><text x="92" y="483" font-family="Arial Unicode MS, PingFang SC, sans-serif" font-size="14" fill="white">隐私中心</text><line x1="310" y1="385" x2="328" y2="385" stroke="#0f5c4d" stroke-width="3" marker-end="url(#arrow)"/><rect x="333" y="215" width="245" height="340" rx="24" fill="#10231f" filter="url(#shadow)"/><text x="357" y="257" font-family="Arial Unicode MS, PingFang SC, sans-serif" font-size="18" font-weight="700" fill="#dff23d">领域逻辑</text><rect x="351" y="293" width="209" height="56" rx="14" fill="rgba(255,255,255,.09)" stroke="#ffffff33"/><text x="365" y="327" font-family="Arial Unicode MS, PingFang SC, sans-serif" font-size="14" fill="white">DailyLog / Settings</text><rect x="351" y="371" width="209" height="56" rx="14" fill="rgba(255,255,255,.09)" stroke="#ffffff33"/><text x="365" y="405" font-family="Arial Unicode MS, PingFang SC, sans-serif" font-size="14" fill="white">Observation Engine</text><rect x="351" y="449" width="209" height="56" rx="14" fill="rgba(255,255,255,.09)" stroke="#ffffff33"/><text x="365" y="483" font-family="Arial Unicode MS, PingFang SC, sans-serif" font-size="14" fill="white">Doctor Summary</text><line x1="583" y1="385" x2="601" y2="385" stroke="#0f5c4d" stroke-width="3" marker-end="url(#arrow)"/><rect x="606" y="215" width="245" height="340" rx="24" fill="#0f5c4d" filter="url(#shadow)"/><text x="630" y="257" font-family="Arial Unicode MS, PingFang SC, sans-serif" font-size="18" font-weight="700" fill="#dff23d">本地能力</text><rect x="624" y="293" width="209" height="56" rx="14" fill="rgba(255,255,255,.09)" stroke="#ffffff33"/><text x="638" y="327" font-family="Arial Unicode MS, PingFang SC, sans-serif" font-size="14" fill="white">React State</text><rect x="624" y="371" width="209" height="56" rx="14" fill="rgba(255,255,255,.09)" stroke="#ffffff33"/><text x="638" y="405" font-family="Arial Unicode MS, PingFang SC, sans-serif" font-size="14" fill="white">localStorage v1</text><rect x="624" y="449" width="209" height="56" rx="14" fill="rgba(255,255,255,.09)" stroke="#ffffff33"/><text x="638" y="483" font-family="Arial Unicode MS, PingFang SC, sans-serif" font-size="14" fill="white">HTML / JSON 导出</text><line x1="856" y1="385" x2="874" y2="385" stroke="#0f5c4d" stroke-width="3" marker-end="url(#arrow)"/><rect x="879" y="215" width="245" height="340" rx="24" fill="#dcebe4" filter="url(#shadow)"/><text x="903" y="257" font-family="Arial Unicode MS, PingFang SC, sans-serif" font-size="18" font-weight="700" fill="#0f5c4d">信任边界</text><rect x="897" y="293" width="209" height="56" rx="14" fill="#f7fbf9" stroke="#b9d2c6"/><text x="911" y="327" font-family="Arial Unicode MS, PingFang SC, sans-serif" font-size="14" fill="#10231f">PIN 原型锁</text><rect x="897" y="371" width="209" height="56" rx="14" fill="#f7fbf9" stroke="#b9d2c6"/><text x="911" y="405" font-family="Arial Unicode MS, PingFang SC, sans-serif" font-size="14" fill="#10231f">快速隐藏</text><rect x="897" y="449" width="209" height="56" rx="14" fill="#f7fbf9" stroke="#b9d2c6"/><text x="911" y="483" font-family="Arial Unicode MS, PingFang SC, sans-serif" font-size="14" fill="#10231f">非诊断声明</text><rect x="60" y="590" width="1080" height="62" rx="18" fill="white" stroke="#c7d6cf"/><text x="82" y="628" font-family="Arial Unicode MS, PingFang SC, sans-serif" font-size="15" fill="#10231f">产品经理关注：业务目标 → 系统模块 → 数据对象 → 接口契约 → 异常与人工边界 → 评测口径</text></svg>