<svg xmlns="http://www.w3.org/2000/svg" width="1200" height="700" viewBox="0 0 1200 700">
<defs><marker id="arrow" markerWidth="10" markerHeight="10" refX="8" refY="3" orient="auto"><path d="M0,0 L0,6 L9,3 z" fill="#0f5c4d"/></marker><filter id="shadow"><feDropShadow dx="0" dy="8" stdDeviation="10" flood-opacity=".10"/></filter></defs>
<rect width="100%" height="100%" fill="#f7f3ea"/>
<text x="60" y="70" font-family="Arial Unicode MS, PingFang SC, sans-serif" font-size="34" font-weight="700" fill="#10231f">月信 · 女性健康 App · 核心时序</text>
<text x="60" y="104" font-family="Arial Unicode MS, PingFang SC, sans-serif" font-size="15" fill="#60716b">主流程示意；异常分支在接口与安全清单中定义</text><rect x="23" y="132" width="124" height="44" rx="14" fill="#10231f"/><text x="85" y="159" text-anchor="middle" font-family="Arial Unicode MS, PingFang SC, sans-serif" font-size="13" font-weight="700" fill="white">用户</text><line x1="85" y1="176" x2="85" y2="650" stroke="#a9bbb4" stroke-width="1.4" stroke-dasharray="6,7"/><rect x="228" y="132" width="124" height="44" rx="14" fill="#10231f"/><text x="290" y="159" text-anchor="middle" font-family="Arial Unicode MS, PingFang SC, sans-serif" font-size="13" font-weight="700" fill="white">记录界面</text><line x1="290" y1="176" x2="290" y2="650" stroke="#a9bbb4" stroke-width="1.4" stroke-dasharray="6,7"/><rect x="433" y="132" width="124" height="44" rx="14" fill="#10231f"/><text x="495" y="159" text-anchor="middle" font-family="Arial Unicode MS, PingFang SC, sans-serif" font-size="13" font-weight="700" fill="white">状态模型</text><line x1="495" y1="176" x2="495" y2="650" stroke="#a9bbb4" stroke-width="1.4" stroke-dasharray="6,7"/><rect x="638" y="132" width="124" height="44" rx="14" fill="#10231f"/><text x="700" y="159" text-anchor="middle" font-family="Arial Unicode MS, PingFang SC, sans-serif" font-size="13" font-weight="700" fill="white">localStorage</text><line x1="700" y1="176" x2="700" y2="650" stroke="#a9bbb4" stroke-width="1.4" stroke-dasharray="6,7"/><rect x="843" y="132" width="124" height="44" rx="14" fill="#10231f"/><text x="905" y="159" text-anchor="middle" font-family="Arial Unicode MS, PingFang SC, sans-serif" font-size="13" font-weight="700" fill="white">洞察引擎</text><line x1="905" y1="176" x2="905" y2="650" stroke="#a9bbb4" stroke-width="1.4" stroke-dasharray="6,7"/><rect x="1048" y="132" width="124" height="44" rx="14" fill="#10231f"/><text x="1110" y="159" text-anchor="middle" font-family="Arial Unicode MS, PingFang SC, sans-serif" font-size="13" font-weight="700" fill="white">报告导出</text><line x1="1110" y1="176" x2="1110" y2="650" stroke="#a9bbb4" stroke-width="1.4" stroke-dasharray="6,7"/><line x1="85" y1="220" x2="290" y2="220" stroke="#0f5c4d" stroke-width="2.4" marker-end="url(#arrow)"/><rect x="82.5" y="196" width="210" height="22" rx="9" fill="#f7f3ea"/><text x="187.5" y="211" text-anchor="middle" font-family="Arial Unicode MS, PingFang SC, sans-serif" font-size="11" fill="#10231f">01 20 秒完成身体信号记录</text><line x1="290" y1="267" x2="495" y2="267" stroke="#0f5c4d" stroke-width="2.4" marker-end="url(#arrow)"/><rect x="287.5" y="243" width="210" height="22" rx="9" fill="#f7f3ea"/><text x="392.5" y="258" text-anchor="middle" font-family="Arial Unicode MS, PingFang SC, sans-serif" font-size="11" fill="#10231f">02 校验并生成 DailyLog</text><line x1="495" y1="314" x2="700" y2="314" stroke="#0f5c4d" stroke-width="2.4" marker-end="url(#arrow)"/><rect x="492.5" y="290" width="210" height="22" rx="9" fill="#f7f3ea"/><text x="597.5" y="305" text-anchor="middle" font-family="Arial Unicode MS, PingFang SC, sans-serif" font-size="11" fill="#10231f">03 写入 yuexin.dailyLogs.v1</text><line x1="495" y1="361" x2="905" y2="361" stroke="#0f5c4d" stroke-width="2.4" marker-end="url(#arrow)"/><rect x="595.0" y="337" width="210" height="22" rx="9" fill="#f7f3ea"/><text x="700.0" y="352" text-anchor="middle" font-family="Arial Unicode MS, PingFang SC, sans-serif" font-size="11" fill="#10231f">04 计算 30/90 天趋势</text><line x1="905" y1="408" x2="290" y2="408" stroke="#0f5c4d" stroke-width="2.4" marker-end="url(#arrow)"/><rect x="492.5" y="384" width="210" height="22" rx="9" fill="#f7f3ea"/><text x="597.5" y="399" text-anchor="middle" font-family="Arial Unicode MS, PingFang SC, sans-serif" font-size="11" fill="#10231f">05 返回事实型洞察</text><line x1="85" y1="455" x2="290" y2="455" stroke="#0f5c4d" stroke-width="2.4" marker-end="url(#arrow)"/><rect x="82.5" y="431" width="210" height="22" rx="9" fill="#f7f3ea"/><text x="187.5" y="446" text-anchor="middle" font-family="Arial Unicode MS, PingFang SC, sans-serif" font-size="11" fill="#10231f">06 选择生成就诊摘要</text><line x1="290" y1="502" x2="1110" y2="502" stroke="#0f5c4d" stroke-width="2.4" marker-end="url(#arrow)"/><rect x="595.0" y="478" width="210" height="22" rx="9" fill="#f7f3ea"/><text x="700.0" y="493" text-anchor="middle" font-family="Arial Unicode MS, PingFang SC, sans-serif" font-size="11" fill="#10231f">07 buildDoctorSummary</text><line x1="1110" y1="549" x2="85" y2="549" stroke="#0f5c4d" stroke-width="2.4" marker-end="url(#arrow)"/><rect x="492.5" y="525" width="210" height="22" rx="9" fill="#f7f3ea"/><text x="597.5" y="540" text-anchor="middle" font-family="Arial Unicode MS, PingFang SC, sans-serif" font-size="11" fill="#10231f">08 HTML / 文本报告（本地）</text></svg>